<?xml version="1.0" standalone="no"?>
<!DOCTYPE svg PUBLIC "-//W3C//DTD SVG 20010904//EN"
 "http://www.w3.org/TR/2001/REC-SVG-20010904/DTD/svg10.dtd">
<svg version="1.0" xmlns="http://www.w3.org/2000/svg"
 width="960.000000pt" height="960.000000pt" viewBox="0 0 960.000000 960.000000"
 preserveAspectRatio="xMidYMid meet">
<metadata>
Created by potrace 1.14, written by Peter Selinger 2001-2017
</metadata>
<g transform="translate(0.000000,960.000000) scale(0.100000,-0.100000)"
fill="#000000" stroke="none">
<path d="M5289 7516 c-2 -2 -42 -7 -89 -10 -70 -6 -183 -22 -350 -51 -14 -2
-56 -11 -95 -20 -38 -9 -77 -18 -85 -20 -16 -3 -204 -52 -230 -60 -18 -5 -121
-35 -135 -39 -5 -2 -17 -6 -25 -9 -8 -3 -58 -19 -110 -36 -52 -17 -104 -36
-115 -41 -11 -5 -81 -33 -155 -61 -74 -28 -139 -54 -145 -57 -5 -4 -12 -7 -15
-8 -8 -1 -74 -33 -90 -44 -8 -5 -46 -27 -85 -48 -38 -22 -87 -49 -107 -61 -21
-11 -53 -29 -70 -39 -68 -38 -164 -93 -178 -102 -8 -6 -103 -60 -210 -121
-107 -61 -199 -115 -205 -119 -5 -4 -30 -19 -55 -33 -25 -13 -94 -53 -155 -88
-171 -100 -481 -245 -560 -264 -5 -1 -17 -5 -25 -8 -20 -9 -178 -58 -199 -62
-9 -2 -56 -13 -105 -24 -113 -27 -259 -51 -361 -59 -160 -12 -459 -6 -610 12
-104 13 -179 23 -230 32 -16 3 -43 7 -60 9 -16 2 -48 7 -70 10 -35 6 -38 5
-26 -9 7 -9 17 -16 21 -16 5 0 75 -44 157 -98 160 -107 227 -150 258 -168 11
-6 65 -38 120 -71 309 -184 686 -338 930 -379 11 -1 47 -8 80 -14 103 -19 164
-23 375 -25 247 -4 335 5 600 59 14 3 43 10 65 15 45 11 95 23 110 26 20 5
202 55 282 78 45 14 84 22 86 20 3 -2 -6 -25 -18 -52 -53 -110 -56 -182 -9
-235 59 -66 147 -87 344 -81 63 2 124 6 135 8 11 2 42 8 68 11 27 4 59 9 70
12 91 17 144 29 222 51 50 14 95 26 100 28 6 1 17 4 25 8 8 3 60 20 115 37 55
18 104 36 110 41 20 20 25 6 24 -73 -2 -127 17 -197 69 -252 80 -85 262 -103
489 -50 91 21 86 20 103 27 8 4 58 22 110 40 52 19 103 38 113 42 17 7 18 3
16 -46 -9 -206 -149 -375 -359 -433 -192 -54 -466 -51 -619 6 -31 11 -72 26
-92 34 -35 12 -216 61 -262 70 -12 2 -31 6 -42 9 -46 11 -254 53 -298 59 -27
4 -57 9 -66 11 -10 2 -42 6 -71 10 -29 4 -60 8 -69 10 -9 1 -50 6 -91 10 -41
4 -86 8 -100 10 -160 19 -601 26 -750 12 -104 -9 -282 -33 -335 -43 -11 -2
-37 -6 -59 -9 -21 -3 -41 -7 -45 -9 -3 -2 -22 -7 -41 -10 -19 -3 -71 -15 -115
-26 -44 -12 -84 -23 -90 -24 -355 -91 -774 -311 -1060 -556 -123 -106 -317
-312 -375 -400 -8 -12 -21 -28 -27 -36 -7 -7 -13 -15 -13 -18 0 -3 -15 -27
-34 -53 -35 -50 -157 -260 -160 -278 -2 -5 -19 -46 -40 -90 -58 -123 -143
-391 -176 -554 -37 -185 -42 -222 -55 -374 -2 -26 -7 -52 -10 -57 -4 -6 -3
-10 2 -10 4 0 40 44 78 97 343 470 786 915 1231 1238 49 35 100 72 114 82 40
30 218 143 315 200 123 73 365 190 510 248 66 26 129 51 140 56 51 22 387 120
392 115 2 -2 -42 -29 -99 -60 -56 -32 -122 -74 -147 -94 -79 -62 -181 -172
-228 -244 -66 -102 -105 -192 -150 -343 -3 -12 -21 -90 -29 -125 -11 -56 -11
-308 1 -375 23 -128 26 -140 56 -230 36 -109 98 -240 146 -309 120 -173 131
-186 108 -131 -9 22 -21 50 -25 61 -29 73 -31 239 -6 329 32 107 66 168 66
117 0 -10 4 -22 8 -27 5 -6 15 -26 22 -45 32 -84 144 -298 206 -392 146 -221
349 -377 492 -378 l33 0 -3 50 c-2 27 -7 50 -12 50 -5 0 -7 2 -4 6 3 3 2 22
-3 42 -6 20 -12 48 -15 62 -3 14 -9 41 -14 60 -5 19 -12 51 -15 70 -3 19 -8
42 -10 50 -7 24 -33 165 -40 215 -2 17 -7 48 -11 70 -4 22 -8 54 -10 70 -1 17
-6 68 -11 115 -14 150 -7 568 12 640 2 8 7 33 10 55 7 50 13 81 19 103 3 9 8
32 11 50 12 71 62 196 117 294 28 49 98 135 150 183 59 55 74 65 135 95 93 44
86 45 150 -22 87 -91 143 -145 197 -191 27 -23 59 -52 71 -64 63 -61 261 -201
395 -281 122 -71 411 -206 465 -216 6 -1 15 -4 20 -8 27 -16 353 -111 425
-124 14 -2 36 -7 50 -10 27 -6 32 -7 125 -23 93 -16 251 -33 345 -37 102 -5
359 -4 415 1 105 10 152 15 175 20 14 3 43 7 65 10 22 3 52 7 68 10 25 5 36 7
105 21 15 3 54 12 87 21 33 8 71 17 85 19 39 7 274 85 284 95 6 5 16 9 23 9 7
0 61 23 120 51 391 186 697 448 917 786 145 222 253 491 302 746 2 12 6 33 9
47 20 96 36 219 50 375 2 28 7 84 11 125 4 41 7 97 8 125 l1 50 40 -4 c108
-11 475 -3 600 14 22 3 58 7 80 10 22 3 55 9 73 14 17 5 32 8 32 6 0 -5 162
50 189 64 27 15 27 22 -5 57 -77 87 -126 133 -184 174 -19 13 -44 32 -54 42
-11 10 -55 41 -98 69 -43 28 -78 55 -78 59 0 4 9 33 20 66 30 86 33 109 32
210 -1 103 -25 183 -83 280 -42 70 -169 202 -226 234 -24 13 -43 27 -43 32 0
4 -9 8 -20 8 -11 0 -20 4 -20 8 0 5 -19 17 -42 26 -99 41 -194 78 -208 81 -8
2 -41 10 -74 19 -179 47 -461 62 -624 31 -9 -1 -37 -6 -62 -10 -79 -12 -183
-46 -265 -86 -86 -43 -147 -77 -155 -88 -3 -4 -21 -18 -40 -31 -51 -35 -152
-141 -193 -202 -62 -95 -77 -131 -73 -176 2 -24 0 -40 -5 -36 -5 3 -9 13 -9
22 0 10 -3 12 -9 7 -10 -10 -111 -201 -165 -312 -17 -35 -34 -63 -37 -63 -4 0
-1 21 7 48 42 137 31 344 -25 481 -34 84 -76 145 -148 214 -56 55 -230 167
-258 167 -8 0 -15 5 -15 10 0 6 -7 10 -15 10 -8 0 -23 4 -33 10 -43 24 -195
70 -282 86 -14 3 -41 9 -60 14 -19 4 -62 12 -95 16 -33 4 -62 8 -65 9 -3 0
-34 5 -70 9 -36 4 -74 10 -85 13 -25 6 -421 14 -426 9z"/>
<path d="M34 2251 c-10 -17 -22 -31 -26 -31 -4 0 -8 -4 -8 -10 0 -19 51 14 56
37 10 36 -2 38 -22 4z"/>
</g>
</svg>
