<svg width="32" height="33" viewBox="0 0 32 33" fill="none" xmlns="http://www.w3.org/2000/svg">
<path d="M20 14.7878H17.3334V9.45443C17.3334 9.10081 17.1929 8.76167 16.9428 8.51162C16.6928 8.26158 16.3536 8.1211 16 8.1211C15.6464 8.1211 15.3073 8.26158 15.0572 8.51162C14.8072 8.76167 14.6667 9.10081 14.6667 9.45443V16.1211C14.6667 16.4747 14.8072 16.8139 15.0572 17.0639C15.3073 17.314 15.6464 17.4544 16 17.4544H20C20.3536 17.4544 20.6928 17.314 20.9428 17.0639C21.1929 16.8139 21.3334 16.4747 21.3334 16.1211C21.3334 15.7675 21.1929 15.4283 20.9428 15.1783C20.6928 14.9282 20.3536 14.7878 20 14.7878ZM16 2.78777C13.3629 2.78777 10.7851 3.56975 8.59242 5.03484C6.39977 6.49992 4.6908 8.5823 3.68163 11.0187C2.67246 13.455 2.40842 16.1359 2.92289 18.7223C3.43736 21.3087 4.70724 23.6845 6.57194 25.5492C8.43664 27.4139 10.8124 28.6838 13.3988 29.1982C15.9852 29.7127 18.6661 29.4487 21.1025 28.4395C23.5388 27.4303 25.6212 25.7214 27.0863 23.5287C28.5514 21.336 29.3334 18.7582 29.3334 16.1211C29.3334 14.3701 28.9885 12.6363 28.3184 11.0187C27.6484 9.40098 26.6662 7.93112 25.4281 6.69301C24.19 5.45489 22.7201 4.47277 21.1025 3.80271C19.4848 3.13264 17.751 2.78777 16 2.78777V2.78777ZM16 26.7878C13.8904 26.7878 11.8281 26.1622 10.0739 24.9901C8.31982 23.818 6.95265 22.1521 6.14531 20.2031C5.33798 18.254 5.12674 16.1093 5.53832 14.0401C5.94989 11.971 6.96579 10.0704 8.45755 8.57863C9.94931 7.08687 11.8499 6.07097 13.9191 5.65939C15.9882 5.24781 18.1329 5.45905 20.082 6.26638C22.0311 7.07372 23.697 8.44089 24.869 10.195C26.0411 11.9491 26.6667 14.0114 26.6667 16.1211C26.6667 18.9501 25.5429 21.6632 23.5425 23.6636C21.5421 25.664 18.829 26.7878 16 26.7878V26.7878Z" fill="#FF6A3E"/>
</svg>
