<?xml version="1.0" encoding="UTF-8" standalone="no"?>
<!-- Generator: Adobe Illustrator 19.0.0, SVG Export Plug-In . SVG Version: 6.00 Build 0)  -->

<svg
   version="1.1"
   id="Layer_1"
   x="0px"
   y="0px"
   viewBox="0 0 345.8028 79.800447"
   enable-background="new 0 0 720 576"
   xml:space="preserve"
   sodipodi:docname="og-sparrow.svg"
   width="345.8028"
   height="79.800446"
   inkscape:version="1.3.2 (091e20e, 2023-11-25, custom)"
   xmlns:inkscape="http://www.inkscape.org/namespaces/inkscape"
   xmlns:sodipodi="http://sodipodi.sourceforge.net/DTD/sodipodi-0.dtd"
   xmlns="http://www.w3.org/2000/svg"
   xmlns:svg="http://www.w3.org/2000/svg"><defs
   id="defs1" /><sodipodi:namedview
   id="namedview1"
   pagecolor="#ffffff"
   bordercolor="#000000"
   borderopacity="0.25"
   inkscape:showpageshadow="2"
   inkscape:pageopacity="0.0"
   inkscape:pagecheckerboard="0"
   inkscape:deskcolor="#d1d1d1"
   inkscape:zoom="2.0364583"
   inkscape:cx="204.27622"
   inkscape:cy="14.976982"
   inkscape:window-width="2560"
   inkscape:window-height="1369"
   inkscape:window-x="-8"
   inkscape:window-y="-8"
   inkscape:window-maximized="1"
   inkscape:current-layer="Layer_1" />
<g
   id="XMLID_111_"
   display="none"
   transform="translate(-258.65703,-273.00949)">
	<g
   id="XMLID_75_"
   display="inline">
		<text
   id="XMLID_82_"
   transform="translate(218.9825,195.2278)"
   font-family="NexaBold"
   font-size="38.0979px"
   style="-inkscape-font-specification:Arial;font-family:Arial;font-weight:normal;font-style:normal;font-stretch:normal;font-variant:normal">Sparrow Group</text>
		<g
   id="XMLID_74_">
			<path
   id="XMLID_89_"
   fill="#d4d5d9"
   d="m 401.4,128.1 c -0.2,1 -0.3,1.8 -0.4,2.3 -1.3,5.4 -4.1,9.7 -8.4,12.9 -2.6,1.9 -5.6,3.4 -8.7,4.2 -3.2,0.9 -6.4,1.3 -9.7,1.3 -5,-0.1 -9.7,-1.1 -14.2,-3.1 -4,-1.8 -7.4,-4.4 -10.3,-7.7 -0.2,-0.2 -0.2,-0.3 0.1,-0.1 4,2.1 8,3.8 12,5.1 6,1.9 12.4,2.7 18.5,1.5 10,-2 16.8,-9.3 21.2,-18.1 0,0 0,0 0,0 0,0 0,0 0.1,0 0,0 0,0 0,0 -0.1,0.4 -0.2,1 -0.2,1.7 z" />
			<path
   id="XMLID_88_"
   fill="#d4d5d9"
   d="m 351.4,137.3 c -3,0 -6,0.4 -8.9,0.7 -3.6,0.5 -7.1,1.3 -10.5,2.6 -6.7,2.5 -12.1,6.7 -16,12.8 -1.8,2.8 -3.3,5.8 -4.4,8.8 l -0.7,1.7 c -0.1,0.2 -0.1,0.2 -0.1,0 0,-2.4 0.3,-4.8 0.9,-7.3 1.8,-7.3 6.1,-13.3 12.6,-17.1 9.7,-5.7 22.2,-5.6 32.9,-2.8 0.5,0.1 0.9,0.2 1.3,0.5 0.1,0 0.1,0.1 0,0 -0.2,-0.1 -0.4,-0.1 -0.6,-0.1 -2.1,0.1 -4.3,0.1 -6.5,0.2 z" />
			<path
   id="XMLID_87_"
   fill="#d4d5d9"
   d="m 343.2,140.4 c -3,3.2 -5.1,6.5 -6.6,10.4 -0.4,1.2 -0.9,2.4 -1.3,3.6 0,0.2 0,0.3 -0.1,0.4 0,0 -0.1,0 -0.1,0 0,0 0,0 0,0 -0.9,-3.2 -0.4,-6.6 1.3,-9.5 1.5,-2.5 3.8,-4.3 6.9,-5.3 0.2,-0.1 0.3,0 0.1,0.2 0,-0.1 -0.1,0 -0.2,0.2 z" />
			<path
   id="XMLID_86_"
   fill="#d4d5d9"
   d="m 349.1,140.5 c -1.8,3.1 -2.7,6.6 -2.8,10.3 -0.1,4.5 0.7,8.8 1.9,13.3 0,0 0,0.1 -0.1,0.1 0,0 0,0 -0.1,0 0,0 0,0 -0.1,0 -2.8,-3.3 -4.7,-7.6 -5,-11.9 -0.3,-5.1 1.7,-9.8 6.3,-12.2 0.2,-0.1 0.2,0 0.1,0.1 0.1,-0.1 0,0.1 -0.2,0.3 z" />
			<path
   id="XMLID_85_"
   fill="#d4d5d9"
   d="m 413.1,120.2 -0.7,-0.8 c -1,-0.9 -2.1,-1.8 -3.3,-2.6 l -0.8,-0.5 c 0,0 -0.1,-0.1 0,-0.1 1.5,-3 0.3,-6 -2.3,-8 -1.3,-0.9 -2.7,-1.7 -4.2,-2.1 -2.7,-0.8 -5.5,-0.9 -8.2,-0.3 -0.5,0.1 -1,0.2 -1.5,0.4 -0.1,0 -0.1,0 -0.2,0.1 -7,2.5 -9.2,12.1 -9.8,15.8 -0.1,0.5 -0.1,1 -0.2,1.5 0,0.1 0,0.1 0,0.1 0,0.1 0.1,0.1 0.1,0 0.2,-0.5 0.5,-1 0.8,-1.5 0.6,-1.3 1.3,-2.6 2.1,-3.9 2.9,-5.1 8.3,-10.9 14.7,-10 2.3,0.3 4.3,1.3 5.9,3 1.1,1.2 1.7,2.5 1.9,4.1 0.1,0.8 -0.1,1.5 -0.6,2 -0.1,0.2 -0.1,0.2 0.1,0.1 0.2,-0.1 0.4,-0.2 0.6,-0.3 0,0 0,0 0,0 0,0 0.1,0 0.1,0.1 0.2,0.9 0.5,1.7 0.9,2.4 0,0.1 0,0.1 0,0.1 -2.2,0.5 -4.3,1.2 -6.4,1.9 -0.1,0 -0.1,0 0,0.1 l 0.8,0.1 c 2.6,0.1 5.1,0 7.7,-0.4 0.9,-0.2 1.7,-0.5 2.6,-0.8 0,0 0,0 0,0 -0.1,-0.3 -0.1,-0.4 -0.1,-0.5 z" />
			<path
   id="XMLID_76_"
   fill="#d4d5d9"
   d="m 353.4,96.2 c -0.1,0.1 -0.3,0.1 -0.3,0.1 -1.6,0.8 -3,1.6 -4.2,2.6 -1.4,1.2 -2.9,2.4 -4.3,3.6 -1,0.8 -2.4,1.7 -4.1,2.6 -2.2,1.1 -4.6,1.9 -7,2.3 -2.9,0.5 -5.9,0.7 -8.8,0.2 -0.9,-0.1 -1.9,-0.3 -3,-0.6 l -1,-0.2 c -0.1,0 -0.1,0 0,0 2.5,2.3 5.5,4.5 8.7,5.9 2.9,1.2 5.9,1.8 9.2,1.5 1.2,-0.1 2.3,-0.2 3.3,-0.4 0,0 0,0 0.1,0 0,0 0,0 0,0.1 0,0 0,0 0,0 -1.1,1.2 -2.3,2.4 -3.4,3.6 -3.7,3.8 -7.7,6.9 -12.7,8.9 -4.3,1.7 -9,2.3 -13.6,2.1 h -0.6 c -0.3,0 -0.3,0 0,0.1 3.6,1.8 7.4,3.4 11.2,4.4 3.4,0.9 6.8,1.1 10.1,0.7 4.3,-0.6 8.5,-2.3 12.3,-4.3 0.1,0 0.1,0 0.1,0 -0.5,1.3 -0.9,3.1 1,3.6 0.4,0.1 0.8,0.1 1.2,0.1 1.1,0 2.4,-0.3 3.7,-0.8 2.3,-0.8 4.6,-1.8 6.8,-3.1 0.1,0 0.1,0 0.1,0 0,1.4 0.4,3.2 1.9,3.7 1.1,0.4 2.4,0.2 3.5,-0.2 2.3,-0.8 4.7,-2.2 6.7,-3.7 2.8,-1.9 5.2,-4.5 7.2,-7.3 0.5,-0.7 2.8,-3.4 3.3,-4.3 0.1,-0.1 0.1,-0.3 0.2,-0.4 0,0 0,0 0,0 -0.1,0.1 -0.3,0.2 -0.4,0.3 -2.7,2.2 -7.5,6.1 -10.4,7.9 -1.8,1.1 -3.5,2.1 -5.1,2.8 -1,0.5 -2.1,0.9 -3.1,1.1 -0.2,0 -0.2,0 -0.1,-0.1 l 0.5,-0.7 0.2,-0.3 c 0.5,-0.9 1,-1.9 1.3,-2.8 0.3,-0.9 0.7,-2.6 -0.5,-3.1 -0.8,-0.3 -1.6,0.2 -2.3,0.5 l -3.7,2 c -1.6,0.8 -3.3,1.5 -4.9,2.1 -0.1,0 -0.1,0 0,-0.1 0.8,-1.2 1.7,-2.8 1.3,-4.2 -0.2,-0.7 -0.8,-1.1 -1.5,-1.1 -0.4,0 -0.9,0.1 -1.4,0.2 -0.1,0.1 -0.2,0.1 -0.3,0.2 -0.2,0.1 -0.3,0.1 -0.4,0.2 -4,2.2 -7,3.8 -9.1,4.9 -1.4,0.7 -2.9,1.4 -4.5,2.2 -3.5,1.5 -7,2.1 -10.7,1.6 -0.1,0 -0.1,0 0,-0.1 l 1.3,-0.3 c 5,-1.5 9.1,-4.9 12.8,-8.6 3,-3 6,-6.2 9.1,-9.1 4.2,-3.9 9,-7 14.8,-7.7 6.5,-0.7 15.3,3.6 20.9,6.7 0,0 0.1,0 0.1,0 0.1,0 0.1,0 0,-0.1 -0.1,-0.1 -0.2,-0.3 -0.4,-0.4 -2,-2.4 -15.5,-21.6 -31.1,-14.8 z m 3,6.6 c -2.4,0.9 -4.5,2 -6.5,3.6 -1.8,1.4 -3.5,3 -5.1,4.6 -0.2,0.3 -0.4,0.4 -0.5,0.5 -1.9,0.3 -3.7,0.5 -5.6,0.5 -3.7,0 -7.2,-0.8 -10.4,-2.3 0,0 -0.1,-0.1 -0.1,-0.1 -0.1,-0.1 -0.1,-0.1 0,-0.1 l 1.8,0.2 c 4.1,0.3 8,-0.5 11.7,-2.3 1.5,-0.7 2.9,-1.6 4.3,-2.6 1.5,-1 3,-2.2 4.7,-3.4 2.2,-1.6 4.6,-3 7.2,-3.6 2,-0.5 4,-0.5 6,-0.2 0.1,0 0.3,0 0.4,0.1 0.9,0.2 1.8,0.4 2.7,0.7 4.5,1.6 6.2,4.6 6.2,4.6 0,0 0,0 0,0 0,0 0,0 0,0 -1.7,-0.6 -3.5,-1 -5.2,-1.2 -4,-0.5 -7.8,-0.3 -11.6,1 z" />
		</g>
	</g>
	<g
   id="XMLID_110_"
   display="inline">
		<text
   id="XMLID_109_"
   transform="translate(273.7234,471.7003)"
   font-family="NexaBold"
   font-size="38.0979px"
   style="-inkscape-font-specification:Arial;font-family:Arial;font-weight:normal;font-style:normal;font-stretch:normal;font-variant:normal">Sparrow Group</text>
		<g
   id="XMLID_90_">
			<path
   id="XMLID_108_"
   fill="#d4d5d9"
   d="m 254.8,459.6 c -0.2,1 -0.3,1.8 -0.4,2.3 -1.3,5.4 -4.1,9.7 -8.4,12.9 -2.6,1.9 -5.6,3.4 -8.7,4.2 -3.2,0.9 -6.4,1.3 -9.7,1.3 -5,-0.1 -9.7,-1.1 -14.2,-3.1 -4,-1.8 -7.4,-4.4 -10.3,-7.7 -0.2,-0.2 -0.2,-0.3 0.1,-0.1 4,2.1 8,3.8 12,5.1 6,1.9 12.4,2.7 18.5,1.5 10,-2 16.8,-9.3 21.2,-18.1 0,0 0,0 0,0 0,0 0,0 0.1,0 0,0 0,0 0,0 0,0.4 -0.1,1 -0.2,1.7 z" />
			<path
   id="XMLID_107_"
   fill="#d4d5d9"
   d="m 204.9,468.8 c -3,0 -6,0.4 -8.9,0.7 -3.6,0.5 -7.1,1.3 -10.5,2.6 -6.7,2.5 -12.1,6.7 -16,12.8 -1.8,2.8 -3.3,5.8 -4.4,8.8 l -0.7,1.7 c -0.1,0.2 -0.1,0.2 -0.1,0 0,-2.4 0.3,-4.8 0.9,-7.3 1.8,-7.3 6.1,-13.3 12.6,-17.1 9.7,-5.7 22.2,-5.6 32.9,-2.8 0.5,0.1 0.9,0.2 1.3,0.5 0.1,0 0.1,0.1 0,0 -0.2,-0.1 -0.4,-0.1 -0.6,-0.1 -2.2,0.1 -4.3,0.1 -6.5,0.2 z" />
			<path
   id="XMLID_106_"
   fill="#d4d5d9"
   d="m 196.6,471.9 c -3,3.2 -5.1,6.5 -6.6,10.4 -0.4,1.2 -0.9,2.4 -1.3,3.6 0,0.2 0,0.3 -0.1,0.4 0,0 -0.1,0 -0.1,0 0,0 0,0 0,0 -0.9,-3.2 -0.4,-6.6 1.3,-9.5 1.5,-2.5 3.8,-4.3 6.9,-5.3 0.2,-0.1 0.3,0 0.1,0.2 0.1,-0.1 0,0 -0.2,0.2 z" />
			<path
   id="XMLID_105_"
   fill="#d4d5d9"
   d="m 202.6,472 c -1.8,3.1 -2.7,6.6 -2.8,10.3 -0.1,4.5 0.7,8.8 1.9,13.3 0,0 0,0.1 -0.1,0.1 0,0 0,0 -0.1,0 0,0 0,0 -0.1,0 -2.8,-3.3 -4.7,-7.6 -5,-11.9 -0.3,-5.1 1.7,-9.8 6.3,-12.2 0.2,-0.1 0.2,0 0.1,0.1 0.1,-0.1 0,0.1 -0.2,0.3 z" />
			<path
   id="XMLID_103_"
   fill="#d4d5d9"
   d="m 266.5,451.7 -0.7,-0.8 c -1,-0.9 -2.1,-1.8 -3.3,-2.6 l -0.8,-0.5 c 0,0 -0.1,-0.1 0,-0.1 1.5,-3 0.3,-6 -2.3,-8 -1.3,-0.9 -2.7,-1.7 -4.2,-2.1 -2.7,-0.8 -5.5,-0.9 -8.2,-0.3 -0.5,0.1 -1,0.2 -1.5,0.4 -0.1,0 -0.1,0 -0.2,0.1 -7,2.5 -9.2,12.1 -9.8,15.8 -0.1,0.5 -0.1,1 -0.2,1.5 0,0.1 0,0.1 0,0.1 0,0.1 0.1,0.1 0.1,0 0.2,-0.5 0.5,-1 0.8,-1.5 0.6,-1.3 1.3,-2.6 2.1,-3.9 2.9,-5.1 8.3,-10.9 14.7,-10 2.3,0.3 4.3,1.3 5.9,3 1.1,1.2 1.7,2.5 1.9,4.1 0.1,0.8 -0.1,1.5 -0.6,2 -0.1,0.2 -0.1,0.2 0.1,0.1 0.2,-0.1 0.4,-0.2 0.6,-0.3 0,0 0,0 0,0 0,0 0.1,0 0.1,0.1 0.2,0.9 0.5,1.7 0.9,2.4 0,0.1 0,0.1 0,0.1 -2.2,0.5 -4.3,1.2 -6.4,1.9 -0.1,0 -0.1,0 0,0.1 l 0.8,0.1 c 2.6,0.1 5.1,0 7.7,-0.4 0.9,-0.2 1.7,-0.5 2.6,-0.8 0,0 0,0 0,0 0,-0.3 0,-0.4 -0.1,-0.5 z" />
			<path
   id="XMLID_92_"
   fill="#d4d5d9"
   d="m 206.9,427.7 c -0.1,0.1 -0.3,0.1 -0.3,0.1 -1.6,0.8 -3,1.6 -4.2,2.6 -1.4,1.2 -2.9,2.4 -4.3,3.6 -1,0.8 -2.4,1.7 -4.1,2.6 -2.2,1.1 -4.6,1.9 -7,2.3 -2.9,0.5 -5.9,0.7 -8.8,0.2 -0.9,-0.1 -1.9,-0.3 -3,-0.6 l -1,-0.2 c -0.1,0 -0.1,0 0,0 2.5,2.3 5.5,4.5 8.7,5.9 2.9,1.2 5.9,1.8 9.2,1.5 1.2,-0.1 2.3,-0.2 3.3,-0.4 0,0 0,0 0.1,0 0,0 0,0 0,0.1 0,0 0,0 0,0 -1.1,1.2 -2.3,2.4 -3.4,3.6 -3.7,3.8 -7.7,6.9 -12.7,8.9 -4.3,1.7 -9,2.3 -13.6,2.1 h -0.6 c -0.3,0 -0.3,0 0,0.1 3.6,1.8 7.4,3.4 11.2,4.4 3.4,0.9 6.8,1.1 10.1,0.7 4.3,-0.6 8.5,-2.3 12.3,-4.3 0.1,0 0.1,0 0.1,0 -0.5,1.3 -0.9,3.1 1,3.6 0.4,0.1 0.8,0.1 1.2,0.1 1.1,0 2.4,-0.3 3.7,-0.8 2.3,-0.8 4.6,-1.8 6.8,-3.1 0.1,0 0.1,0 0.1,0 0,1.4 0.4,3.2 1.9,3.7 1.1,0.4 2.4,0.2 3.5,-0.2 2.3,-0.8 4.7,-2.2 6.7,-3.7 2.8,-1.9 5.2,-4.5 7.2,-7.3 0.5,-0.7 2.8,-3.4 3.3,-4.3 0.1,-0.1 0.1,-0.3 0.2,-0.4 0,0 0,0 0,0 -0.1,0.1 -0.3,0.2 -0.4,0.3 -2.7,2.2 -7.5,6.1 -10.4,7.9 -1.8,1.1 -3.5,2.1 -5.1,2.8 -1,0.5 -2.1,0.9 -3.1,1.1 -0.2,0 -0.2,0 -0.1,-0.1 l 0.5,-0.7 0.2,-0.3 c 0.5,-0.9 1,-1.9 1.3,-2.8 0.3,-0.9 0.7,-2.6 -0.5,-3.1 -0.8,-0.3 -1.6,0.2 -2.3,0.5 l -3.7,2 c -1.6,0.8 -3.3,1.5 -4.9,2.1 -0.1,0 -0.1,0 0,-0.1 0.8,-1.2 1.7,-2.8 1.3,-4.2 -0.2,-0.7 -0.8,-1.1 -1.5,-1.1 -0.4,0 -0.9,0.1 -1.4,0.2 -0.1,0.1 -0.2,0.1 -0.3,0.2 -0.2,0.1 -0.3,0.1 -0.4,0.2 -4,2.2 -7,3.8 -9.1,4.9 -1.4,0.7 -2.9,1.4 -4.5,2.2 -3.5,1.5 -7,2.1 -10.7,1.6 -0.1,0 -0.1,0 0,-0.1 l 1.3,-0.3 c 5,-1.5 9.1,-4.9 12.8,-8.6 3,-3 6,-6.2 9.1,-9.1 4.2,-3.9 9,-7 14.8,-7.7 6.5,-0.7 15.3,3.6 20.9,6.7 0,0 0.1,0 0.1,0 0.1,0 0.1,0 0,-0.1 -0.1,-0.1 -0.2,-0.3 -0.4,-0.4 -2,-2.4 -15.5,-21.6 -31.1,-14.8 z m 3,6.6 c -2.4,0.9 -4.5,2 -6.5,3.6 -1.8,1.4 -3.5,3 -5.1,4.6 -0.2,0.3 -0.4,0.4 -0.5,0.5 -1.9,0.3 -3.7,0.5 -5.6,0.5 -3.7,0 -7.2,-0.8 -10.4,-2.3 0,0 -0.1,-0.1 -0.1,-0.1 -0.1,-0.1 -0.1,-0.1 0,-0.1 l 1.8,0.2 c 4.1,0.3 8,-0.5 11.7,-2.3 1.5,-0.7 2.9,-1.6 4.3,-2.6 1.5,-1 3,-2.2 4.7,-3.4 2.2,-1.6 4.6,-3 7.2,-3.6 2,-0.5 4,-0.5 6,-0.2 0.1,0 0.3,0 0.4,0.1 0.9,0.2 1.8,0.4 2.7,0.7 4.5,1.6 6.2,4.6 6.2,4.6 0,0 0,0 0,0 0,0 0,0 0,0 -1.7,-0.6 -3.5,-1 -5.2,-1.2 -4.1,-0.5 -7.8,-0.3 -11.6,1 z" />
		</g>
	</g>
</g>
<g
   id="XMLID_112_"
   display="none"
   transform="translate(-258.65703,-273.00949)">
	
		<text
   id="XMLID_77_"
   transform="translate(239.7263,330.9241)"
   display="inline"
   font-family="MyriadPro-Regular"
   font-size="38.0979px">Sparrow Group</text>
	<g
   id="XMLID_73_"
   display="inline">
		<path
   id="XMLID_79_"
   fill="#d4d5d9"
   d="m 346.3,277.7 c 0.1,-0.2 0.1,-0.2 -0.1,-0.2 -2.9,0.9 -5.1,2.6 -6.5,4.9 -1.6,2.7 -2.1,5.9 -1.3,8.9 0,0 0,0 0,0 0,0 0.1,0 0.1,0 0.1,-0.1 0.1,-0.2 0.1,-0.4 0.4,-1.1 0.8,-2.2 1.2,-3.3 1.4,-3.6 3.4,-6.7 6.1,-9.7 0.3,-0.1 0.4,-0.2 0.4,-0.2 z" />
		<path
   id="XMLID_95_"
   fill="#d4d5d9"
   d="m 350.3,277.9 c -4.3,2.3 -6.2,6.6 -5.9,11.4 0.2,4.1 2,8.1 4.7,11.2 0,0 0,0 0.1,0 0,0 0,0 0.1,0 0,0 0.1,0 0.1,-0.1 -1.1,-4.2 -1.9,-8.2 -1.7,-12.5 0.1,-3.5 1,-6.7 2.7,-9.6 0.1,-0.2 0.2,-0.3 0.3,-0.4 -0.2,-0.1 -0.2,-0.1 -0.4,0 z" />
		<path
   id="XMLID_96_"
   fill="#d4d5d9"
   d="m 401.9,266.2 c 0,0 0,0.1 0,0 -4.2,8.3 -10.6,15.1 -19.9,17 -5.7,1.1 -11.7,0.4 -17.3,-1.4 -3.8,-1.2 -7.5,-2.8 -11.2,-4.7 -0.3,-0.1 -0.3,-0.1 -0.1,0.1 2.7,3.1 5.9,5.6 9.6,7.3 4.2,1.9 8.7,2.9 13.3,2.9 3.1,0 6.1,-0.4 9.1,-1.2 2.9,-0.8 5.7,-2.2 8.2,-4 4,-3 6.6,-7.1 7.9,-12.1 0.1,-0.4 0.2,-1.2 0.4,-2.1 0,-0.6 0,-1.1 0,-1.8 0.1,0.1 0.1,0.1 0,0 0.1,0 0.1,0 0,0 z" />
		<path
   id="XMLID_97_"
   fill="#d4d5d9"
   d="m 354.7,275.1 c 2,-0.1 4.1,-0.1 6.1,0.1 0.2,0 0.4,0 0.6,0.1 0.1,0 0.1,0 0,0 -0.4,-0.3 -0.8,-0.4 -1.2,-0.5 -10,-2.9 -21.7,-3.2 -30.9,1.9 -6.1,3.4 -10.4,8.9 -12.1,15.7 -0.6,2.3 -1,4.6 -1,6.8 0,0.2 0,0.2 0.1,0 l 0.7,-1.6 c 1.1,-2.9 2.6,-5.6 4.3,-8.2 3.8,-5.6 8.9,-9.5 15.2,-11.7 3.2,-1.1 6.5,-1.8 9.9,-2.2 2.7,-0.2 5.5,-0.4 8.3,-0.4 z" />
		<path
   id="XMLID_101_"
   fill="#d4d5d9"
   d="m 412.8,260.7 -0.7,-0.8 c -0.9,-0.8 -2,-1.6 -3.1,-2.4 l -0.7,-0.5 c 0,0 -0.1,-0.1 0,-0.1 1.4,-2.8 0.2,-5.6 -2.1,-7.5 -1.2,-0.9 -2.5,-1.5 -4,-2 -2.5,-0.8 -5.1,-0.9 -7.7,-0.3 -0.5,0.1 -1,0.2 -1.4,0.4 -0.1,0 -0.1,0 -0.2,0.1 -2.6,0.9 -4.5,2.9 -5.9,5.2 -1.4,-3.6 -9.1,-20.4 -24.2,-16.5 -0.1,0 -0.3,0.1 -0.3,0.1 -1.6,0.5 -3,1.1 -4.3,1.8 -1.5,0.9 -3,1.8 -4.5,2.6 -1.1,0.6 -2.5,1.2 -4.1,1.8 -2.2,0.7 -4.5,1.1 -6.9,1.1 -2.8,0 -5.5,-0.2 -8.1,-1.1 -0.8,-0.3 -1.7,-0.6 -2.7,-1 l -0.9,-0.3 c -0.1,0 -0.1,0 0,0 2,2.5 4.4,5 7.2,6.7 2.5,1.6 5.2,2.5 8.2,2.8 1.1,0.1 2.2,0.1 3.2,0.1 0,0 0,0 0,0 0,0 0,0 0,0.1 0,0 0,0 0,0 -1.2,1 -2.4,1.9 -3.7,2.8 -4,3 -8.1,5.3 -13,6.4 -4.2,0.9 -8.7,0.8 -12.9,-0.1 l -0.5,-0.1 c -0.2,-0.1 -0.3,0 -0.1,0.1 3,2.2 6.3,4.3 9.7,5.8 3,1.3 6.1,2 9.3,2.1 4.1,0.1 8.2,-0.9 12,-2.2 0.1,0 0.1,0 0,0.1 -0.7,1.2 -1.3,2.8 0.4,3.5 0.3,0.1 0.7,0.2 1.1,0.3 1.1,0.1 2.3,0.1 3.6,-0.1 2.3,-0.4 4.5,-1 6.7,-1.9 0.1,0 0.1,0 0.1,0.1 -0.2,1.3 -0.1,3 1.2,3.7 0.6,0.4 1.4,0.5 2.1,0.4 v 0 c 0,0 0,0 0.1,0 0.4,0 0.7,0 1.1,-0.1 0,0 0,0 0.1,0 3.4,-0.4 13.4,-2.1 17.4,-7.7 v 0 c 0,0 0,0 0,0 0.3,-0.4 0.5,-0.8 0.7,-1.2 v 0 c 0,0 0,-0.1 0,-0.1 0.1,-0.1 0.1,-0.2 0.1,-0.3 0.5,-1 1.2,-2.4 2,-4.4 1,-1.9 1.7,-2.8 1.8,-3 2.8,-3.5 6.8,-6.3 11.3,-5.7 2.2,0.3 4,1.2 5.5,2.8 1,1.1 1.6,2.4 1.7,3.8 0.1,0.8 -0.1,1.4 -0.5,1.9 -0.1,0.1 -0.1,0.2 0.1,0.1 0.2,-0.1 0.4,-0.2 0.5,-0.3 0,0 0,0 0,0 0,0 0.1,0 0.1,0.1 0.2,0.8 0.4,1.6 0.9,2.2 0,0.1 0,0.1 0,0.1 -2.1,0.4 -4,1.1 -6,1.8 -0.1,0 -0.1,0 0,0.1 l 0.7,0.1 c 2.4,0.1 4.8,0 7.2,-0.4 0.9,-0.2 1.6,-0.4 2.4,-0.8 0,0 0,0 0,0 0,-0.1 0,-0.2 0,-0.2 z M 347,248.5 c -3.4,-0.5 -6.5,-1.8 -9.3,-3.7 0,0 -0.1,-0.1 -0.1,-0.1 -0.1,-0.1 0,-0.1 0,-0.1 l 1.6,0.4 c 3.8,0.9 7.5,0.7 11.1,-0.4 1.4,-0.5 2.9,-1 4.3,-1.7 1.5,-0.7 3.1,-1.5 4.9,-2.4 2.3,-1.1 4.7,-2 7.2,-2.3 1.9,-0.2 3.8,0.1 5.5,0.7 0.1,0 0.3,0.1 0.4,0.1 0.8,0.3 1.6,0.7 2.4,1.1 3.9,2.2 5,5.1 5,5.1 0,0 0,0 0,0 0,0 0,0 0,0 -1.5,-0.8 -3.1,-1.5 -4.7,-1.9 -3.6,-1 -7.1,-1.3 -10.8,-0.7 -2.3,0.4 -4.5,1.2 -6.5,2.3 -1.9,1.1 -3.7,2.2 -5.4,3.5 -0.2,0.2 -0.4,0.4 -0.5,0.4 -1.6,0.1 -3.4,-0.1 -5.1,-0.3 z m 30.1,16.6 c -0.7,0.3 -1.5,0.5 -2.2,0.7 v 0 0 c -3.3,1.1 -6.2,1.8 -6.2,1.8 -1,0.3 -2,0.5 -3.1,0.6 -0.2,0 -0.2,0 -0.1,-0.1 l 0.6,-0.5 0.2,-0.2 c 0.6,-0.8 1.2,-1.6 1.6,-2.4 0.4,-0.8 1,-2.3 0,-2.9 -0.7,-0.4 -1.5,0 -2.2,0.1 l -3.7,1.3 c -1.6,0.5 -3.3,0.9 -4.9,1.2 -0.1,0 -0.1,0 0,-0.1 0.9,-1 2,-2.3 1.9,-3.7 -0.1,-0.7 -0.5,-1.2 -1.2,-1.3 -0.4,-0.1 -0.8,-0.1 -1.3,0 -0.1,0.1 -0.2,0.1 -0.3,0.1 -0.2,0.1 -0.3,0.1 -0.4,0.1 -4,1.4 -7.1,2.5 -9.2,3.2 -1.4,0.5 -2.9,0.9 -4.5,1.3 -3.4,0.9 -6.8,0.9 -10.2,-0.1 -0.1,0 -0.1,-0.1 0,-0.1 l 1.2,-0.1 c 4.9,-0.6 9.1,-3.2 13.1,-6 3.2,-2.3 6.4,-4.9 9.8,-7.1 4.4,-2.9 9.4,-5.1 14.8,-4.9 6,0.3 11.3,3.3 15.9,6.9 -0.5,0.9 -1,1.9 -1.4,2.9 v 0 c 0,0 0,0 0,0 -0.1,0.4 -0.3,0.7 -0.4,1.1 v 0 l -0.7,1.7 c -1.8,3.7 -5,5.6 -7.1,6.5 z" />
	</g>
</g>
<g
   id="XMLID_120_"
   display="none"
   transform="translate(-258.65703,-273.00949)">
	<g
   id="XMLID_119_"
   display="inline">
		<text
   id="XMLID_80_"
   transform="translate(46.0723,188.5839)"
   fill="#4b4b4b"
   font-family="Nanami"
   font-size="33.1612px">Sparrow Group</text>
		<path
   id="XMLID_81_"
   fill="#4b4b4b"
   d="m 219.2,117.5 c -0.4,-0.5 -0.9,-1 -1.4,-1.5 -1.5,-1.4 -3.2,-2.5 -4.9,-3.7 -0.2,-0.2 -0.3,-0.3 -0.1,-0.5 0.5,-0.9 0.7,-2 0.8,-3 0.1,-2.3 -0.7,-4.3 -2.2,-6 -1.6,-1.9 -3.7,-3.1 -6,-4 -3.2,-1.2 -6.5,-1.7 -9.9,-1.4 -1.8,0.2 -3.5,0.4 -5.2,1.1 -3.5,1.4 -6.3,3.7 -8,7.2 l -0.8,1.6 c -0.9,1.7 -1.7,3.4 -2.5,5.1 0,-0.1 0,-0.3 0,-0.4 0.5,-1.8 0.7,-3.6 0.4,-5.4 -0.2,-1.4 -0.7,-2.6 -1.4,-3.7 v 0 0 c -0.4,-0.6 -0.9,-1.2 -1.4,-1.7 -0.8,-0.8 -1.7,-1.4 -2.6,-1.9 -5.4,-3.6 -16.9,-7.5 -36.9,1.2 l -9,4.4 c -0.7,0.4 -1.4,0.8 -2.1,1.2 v 0 c -3.3,1.9 -6.5,3.8 -9.8,5.7 -7.3,4.3 -15.1,6.6 -23.7,6.2 -2.5,-0.1 -5.1,-0.4 -7.6,-0.9 -0.5,-0.1 -1.1,-0.2 -1.7,-0.4 0,0.1 0,0.1 0.1,0.1 0.2,0.2 0.4,0.3 0.7,0.5 4.1,2.9 8.3,5.5 12.8,7.6 6.8,3.2 13.8,4.1 21.2,2.9 3.4,-0.5 6.7,-1.4 9.9,-2.4 0.2,-0.1 0.4,-0.1 0.7,-0.2 -0.1,0.2 -0.2,0.3 -0.2,0.4 -0.2,0.6 -0.5,1.2 -0.7,1.8 -0.4,1.4 0.2,2.4 1.5,2.9 0.4,0.1 0.7,0.3 1.1,0.3 1.8,0.3 3.6,0.2 5.4,-0.1 3.3,-0.5 6.6,-1.4 9.8,-2.7 0.1,0 0.2,-0.1 0.3,-0.1 0,0.2 0,0.3 0,0.4 0,0.7 -0.1,1.5 0,2.2 0.2,1.7 1,2.8 2.7,3.3 1.2,0.4 2.4,0.3 3.7,0.2 2.1,-0.3 4.2,-1 6.2,-1.8 0.2,-0.1 0.5,-0.2 0.8,-0.3 0,0.4 0,0.7 -0.1,1 -0.3,2.4 -1.3,4.2 -3.4,5.4 -0.6,0.3 -1.3,0.6 -2,0.8 v 0 c 0,0 0,0 -0.1,0 -0.1,0 -0.1,0 -0.2,0.1 -2.1,0.6 -16.9,4.1 -28.1,-3.8 -0.1,0 -0.2,0 -0.3,0 13.6,17.1 31,20.2 31,20.2 v 0 c 3.2,0.7 6.5,1.2 9.9,1.2 3.9,0.1 7.7,-0.3 11.5,-1.2 4.7,-1.1 9,-2.9 12.9,-5.6 4.9,-3.4 8.5,-7.8 10.8,-13.3 1.9,-4.6 2.6,-9.4 2.9,-14.3 0,-0.8 0.1,-1.6 0.1,-2.5 0.1,0 0.2,0 0.2,0 0.8,0 1.6,0.1 2.4,0.1 2.9,0.1 5.8,-0.1 8.6,-0.6 1.3,-0.2 2.5,-0.6 3.7,-1.1 0.3,-0.2 0.4,-0.4 0.2,-0.6 z" />
		<text
   id="XMLID_117_"
   transform="translate(428.2187,188.5839)"
   font-family="Nanami"
   font-size="33.1612px">Sparrow Group</text>
		<path
   id="XMLID_116_"
   d="m 601.3,117.5 c -0.4,-0.5 -0.9,-1 -1.4,-1.5 -1.5,-1.4 -3.2,-2.5 -4.9,-3.7 -0.2,-0.2 -0.3,-0.3 -0.1,-0.5 0.5,-0.9 0.7,-2 0.8,-3 0.1,-2.3 -0.7,-4.3 -2.2,-6 -1.6,-1.9 -3.7,-3.1 -6,-4 -3.2,-1.2 -6.5,-1.7 -9.9,-1.4 -1.8,0.2 -3.5,0.4 -5.2,1.1 -3.5,1.4 -6.3,3.7 -8,7.2 l -0.8,1.6 c -0.9,1.7 -1.7,3.4 -2.5,5.1 0,-0.1 0,-0.3 0,-0.4 0.5,-1.8 0.7,-3.6 0.4,-5.4 -0.2,-1.4 -0.7,-2.6 -1.4,-3.7 v 0 0 c -0.4,-0.6 -0.9,-1.2 -1.4,-1.7 -0.8,-0.8 -1.7,-1.4 -2.6,-1.9 -5.4,-3.6 -16.9,-7.5 -36.9,1.2 l -9,4.4 c -0.7,0.4 -1.4,0.8 -2.1,1.2 v 0 c -3.3,1.9 -6.5,3.8 -9.8,5.7 -7.3,4.3 -15.1,6.6 -23.7,6.2 -2.5,-0.1 -5.1,-0.4 -7.6,-0.9 -0.5,-0.1 -1.1,-0.2 -1.7,-0.4 0,0.1 0,0.1 0.1,0.1 0.2,0.2 0.4,0.3 0.7,0.5 4.1,2.9 8.3,5.5 12.8,7.6 6.8,3.2 13.8,4.1 21.2,2.9 3.4,-0.5 6.7,-1.4 9.9,-2.4 0.2,-0.1 0.4,-0.1 0.7,-0.2 -0.1,0.2 -0.2,0.3 -0.2,0.4 -0.2,0.6 -0.5,1.2 -0.7,1.8 -0.4,1.4 0.2,2.4 1.5,2.9 0.4,0.1 0.7,0.3 1.1,0.3 1.8,0.3 3.6,0.2 5.4,-0.1 3.3,-0.5 6.6,-1.4 9.8,-2.7 0.1,0 0.2,-0.1 0.3,-0.1 0,0.2 0,0.3 0,0.4 0,0.7 -0.1,1.5 0,2.2 0.2,1.7 1,2.8 2.7,3.3 1.2,0.4 2.4,0.3 3.7,0.2 2.1,-0.3 4.2,-1 6.2,-1.8 0.2,-0.1 0.5,-0.2 0.8,-0.3 0,0.4 0,0.7 -0.1,1 -0.3,2.4 -1.3,4.2 -3.4,5.4 -0.6,0.3 -1.3,0.6 -2,0.8 v 0 c 0,0 0,0 -0.1,0 -0.1,0 -0.1,0 -0.2,0.1 -2.1,0.6 -16.9,4.1 -28.1,-3.8 -0.1,0 -0.2,0 -0.3,0 13.6,17.1 31,20.2 31,20.2 v 0 c 3.2,0.7 6.5,1.2 9.9,1.2 3.9,0.1 7.7,-0.3 11.5,-1.2 4.7,-1.1 9,-2.9 12.9,-5.6 4.9,-3.4 8.5,-7.8 10.8,-13.3 1.9,-4.6 2.6,-9.4 2.9,-14.3 0,-0.8 0.1,-1.6 0.1,-2.5 0.1,0 0.2,0 0.2,0 0.8,0 1.6,0.1 2.4,0.1 2.9,0.1 5.8,-0.1 8.6,-0.6 1.3,-0.2 2.5,-0.6 3.7,-1.1 0.4,-0.2 0.4,-0.4 0.2,-0.6 z" />
	</g>
	<g
   id="XMLID_118_"
   display="inline">
		
			<text
   id="XMLID_115_"
   transform="translate(228.2102,475.2964)"
   fill="#bdbdbd"
   font-family="LemonMilk"
   font-size="19.5867px"
   letter-spacing="5"
   style="-inkscape-font-specification:Arial;font-family:Arial;font-weight:normal;font-style:normal;font-stretch:normal;font-variant:normal">Sparrow Group</text>
		<path
   id="XMLID_114_"
   fill="#bdbdbd"
   d="m 400.2,409.4 c -0.4,-0.4 -0.8,-0.9 -1.2,-1.3 -1.3,-1.2 -2.7,-2.2 -4.2,-3.1 -0.2,-0.1 -0.2,-0.2 -0.1,-0.5 0.4,-0.8 0.6,-1.7 0.7,-2.6 0.1,-2 -0.6,-3.7 -1.9,-5.2 -1.4,-1.6 -3.2,-2.7 -5.2,-3.4 -2.7,-1.1 -5.6,-1.5 -8.5,-1.2 -1.5,0.1 -3,0.4 -4.5,0.9 -3,1.2 -5.4,3.2 -6.8,6.2 l -0.7,1.3 c -0.7,1.5 -1.5,2.9 -2.2,4.4 0,-0.1 0,-0.2 0,-0.3 0.4,-1.5 0.6,-3.1 0.3,-4.7 -0.2,-1.2 -0.6,-2.3 -1.2,-3.2 v 0 c 0,0 0,0 0,0 -0.3,-0.5 -0.7,-1 -1.2,-1.5 -0.7,-0.7 -1.4,-1.2 -2.2,-1.6 -4.7,-3.1 -14.5,-6.4 -31.7,1 l -7.7,3.8 c -0.6,0.3 -1.2,0.7 -1.8,1 v 0 c -2.8,1.6 -5.6,3.2 -8.4,4.9 -6.3,3.7 -13,5.7 -20.4,5.4 -2.2,-0.1 -4.4,-0.4 -6.5,-0.8 -0.5,-0.1 -0.9,-0.2 -1.4,-0.3 0,0.1 0,0.1 0,0.1 0.2,0.1 0.4,0.3 0.6,0.4 3.5,2.5 7.1,4.8 11,6.6 5.8,2.7 11.9,3.5 18.2,2.5 2.9,-0.5 5.7,-1.2 8.5,-2.1 0.2,-0.1 0.3,-0.1 0.6,-0.2 -0.1,0.2 -0.2,0.3 -0.2,0.4 -0.2,0.5 -0.5,1 -0.6,1.5 -0.3,1.2 0.2,2.1 1.3,2.5 0.3,0.1 0.6,0.2 0.9,0.3 1.5,0.3 3.1,0.2 4.6,-0.1 2.9,-0.5 5.7,-1.2 8.4,-2.3 0.1,0 0.2,-0.1 0.3,-0.1 0,0.1 0,0.2 0,0.3 0,0.6 -0.1,1.2 0,1.9 0.2,1.4 0.9,2.4 2.3,2.9 1,0.3 2.1,0.3 3.1,0.1 1.8,-0.3 3.6,-0.8 5.3,-1.5 0.2,-0.1 0.4,-0.2 0.7,-0.3 0,0.3 0,0.6 -0.1,0.9 -0.2,2 -1.1,3.6 -3,4.6 -0.5,0.3 -1.1,0.5 -1.7,0.7 v 0 c 0,0 0,0 -0.1,0 -0.1,0 -0.1,0 -0.2,0 -1.8,0.5 -14.6,3.5 -24.2,-3.3 -0.1,0 -0.2,0 -0.2,0 11.7,14.8 26.7,17.4 26.7,17.4 v 0 c 2.8,0.6 5.6,1 8.5,1.1 3.3,0.1 6.6,-0.3 9.9,-1 4,-0.9 7.7,-2.5 11.1,-4.8 4.2,-2.9 7.3,-6.7 9.3,-11.4 1.7,-3.9 2.3,-8.1 2.5,-12.3 0,-0.7 0.1,-1.4 0.1,-2.1 0.1,0 0.1,0 0.2,0 0.7,0 1.4,0.1 2.1,0.1 2.5,0 4.9,-0.1 7.4,-0.5 1.1,-0.2 2.1,-0.5 3.2,-1 0.5,-0.2 0.5,-0.3 0.3,-0.5 z" />
		<rect
   id="XMLID_113_"
   x="228.2"
   y="479.60001"
   fill="#bdbdbd"
   width="241.2"
   height="1.3" />
	</g>
</g>
<g
   id="XMLID_129_"
   display="none"
   transform="translate(-258.65703,-273.00949)">
	<path
   id="XMLID_78_"
   display="inline"
   d="m 404.3,255.8 -0.6,-0.8 c -0.9,-0.8 -1.9,-1.6 -3,-2.3 l -0.7,-0.5 c 0,0 -0.1,-0.1 0,-0.1 1.3,-2.7 0.2,-5.4 -2,-7.2 -1.1,-0.9 -2.4,-1.5 -3.8,-1.9 -2.5,-0.7 -4.9,-0.8 -7.4,-0.3 -0.5,0.1 -0.9,0.2 -1.4,0.3 -0.1,0 -0.1,0 -0.2,0.1 -2.5,0.9 -4.3,2.8 -5.7,5 0,0 -12.9,-18.3 -33.6,-10.8 -0.7,0.3 -1.6,0.7 -2.5,1 -2.1,0.7 -4.3,1.1 -6.6,1.1 -2.7,0 -5.3,-0.2 -7.9,-1 -0.8,-0.3 -1.7,-0.6 -2.6,-0.9 l -0.9,-0.3 c -0.1,0 -0.1,0 0,0 1.9,2.4 4.3,4.8 6.9,6.5 2.4,1.5 5,2.4 7.9,2.7 1.1,0.1 2.1,0.1 3,0.1 0,0 0,0 0,0 0,0 0,0 0,0 0,0 0,0 0,0 -1.2,0.9 -2.4,1.8 -3.6,2.7 -3.8,2.9 -7.8,5.1 -12.6,6.1 -4.1,0.9 -8.4,0.7 -12.4,-0.1 l -0.5,-0.1 c -0.2,-0.1 -0.2,0 -0.1,0.1 2.9,2.1 6.1,4.1 9.4,5.6 2.9,1.3 5.9,2 8.9,2 3.9,0.1 7.9,-0.8 11.6,-2.1 0.1,0 0.1,0 0,0 -0.7,1.1 -1.2,2.7 0.4,3.3 0.3,0.1 0.7,0.2 1,0.3 1,0.1 2.2,0.1 3.4,-0.1 2.2,-0.4 4.4,-1 6.5,-1.8 0.1,0 0.1,0 0.1,0.1 -0.2,1.3 -0.1,2.9 1.1,3.6 0.9,0.5 2.1,0.5 3.1,0.3 1.5,-0.2 3,-0.8 4.5,-1.4 v 0 c 0,7 -9.5,4.8 -9.5,4.8 l -2,-0.2 c 0.5,0 1,0 1.4,0.1 0.2,0 0.4,0 0.5,0.1 0.1,0 0.1,0 0,0 -0.4,-0.3 -0.7,-0.4 -1.2,-0.5 -9.6,-2.7 -20.9,-3.1 -29.8,1.9 -4.6,2.6 -8.1,6.4 -10.2,11 v 0 0 c -0.6,1.3 -1.1,2.7 -1.5,4.1 -0.6,2.2 -0.9,4.4 -1,6.6 0,0.2 0,0.2 0.1,0 11.6,-16.5 24.5,-20 28,-20.7 -2.4,0.9 -4.2,2.4 -5.4,4.4 -0.1,0.2 -0.2,0.3 -0.3,0.5 v 0 0 c -0.9,1.7 -1.4,3.6 -1.3,5.6 0,5.1 3.3,8.6 3.3,8.6 -1.7,-3 0,-5.7 0,-5.7 3.3,8.9 7.4,8.5 7.4,8.5 0,0 0.1,0 0.1,-0.1 -0.3,-1.2 -0.6,-2.4 -0.8,-3.6 -3,-16.4 3.6,-18.6 4.7,-18.8 0,0 0,0.1 0.1,0.1 2.6,3 5.7,5.4 9.3,7 4.1,1.8 8.3,2.8 12.8,2.8 3,0 5.9,-0.4 8.7,-1.2 2.8,-0.8 5.5,-2.1 7.9,-3.8 2.3,-1.7 4.1,-3.8 5.5,-6.3 v 0 c 3.1,-5.2 3,-13.2 3,-13.2 l 0.7,0.1 c 2.3,0.1 4.6,0 6.9,-0.4 0.8,-0.2 1.6,-0.4 2.3,-0.7 0,0 0,0 0,0 0.6,0 0.6,-0.1 0.6,-0.2 z" />
	
		<text
   id="XMLID_131_"
   transform="translate(207.7364,326.8293)"
   display="inline"
   font-family="NexaBold"
   font-size="42.4499px"
   style="-inkscape-font-specification:Arial;font-family:Arial;font-weight:normal;font-style:normal;font-stretch:normal;font-variant:normal">Sparrow</text>
	<g
   id="XMLID_130_"
   display="inline">
		<text
   id="XMLID_33_"
   transform="translate(388.4387,326.8296)"
   font-family="NexaLight"
   font-size="42.4499px">Group</text>
	</g>
</g>
<g
   id="XMLID_126_"
   transform="translate(-258.65703,-273.00949)">
	
	<text
   id="XMLID_125_"
   font-family="DINCondensed-Bold"
   font-size="68.6577px"
   transform="translate(255.5728,323.0277)"><tspan
     style="font-style:normal;font-variant:normal;font-weight:normal;font-stretch:normal;font-family:Arial;-inkscape-font-specification:Arial"
     id="tspan1">SPARROW</tspan></text>
	
		<text
   id="XMLID_124_"
   transform="translate(389.5015,352.3983)"
   fill="#a4a4a5"
   font-family="DINCondensed-Bold"
   font-size="33.7215px"
   style="fill:#ff6a3e;fill-opacity:1"><tspan
     style="font-style:normal;font-variant:normal;font-weight:normal;font-stretch:normal;font-family:Arial;-inkscape-font-specification:Arial;fill:#ff6a3e;fill-opacity:1"
     id="tspan2">GROUP</tspan></text>
	<rect
   id="XMLID_123_"
   x="263.70001"
   y="336.89999"
   width="120.1"
   height="2.8" />
</g><g
   id="XMLID_127_"
   style="fill:#ffffff;fill-opacity:1"
   transform="matrix(0.29743805,0,0,0.29743805,165.4471,-5.5220633)"
   inkscape:label="XMLID_127_">
		<path
   id="XMLID_128_"
   d="m 310,267.7 c 0,-0.5 0.1,-1 0.1,-1.4 0.6,-5.7 2.6,-10.9 6.4,-15.2 2.3,-2.5 5,-4.5 8.1,-6 2.8,-1.4 5.8,-2.2 8.9,-2.7 2.5,-0.4 5.1,-0.5 7.7,-0.4 4.3,0.2 8.6,0.9 12.7,2.1 0.3,0.1 0.6,0.3 0.9,0.4 0.3,0.1 0.6,0.1 0.8,0.2 1.2,0.2 2.3,0.2 3.5,0.1 1.1,-0.1 2.1,-0.3 3,-0.8 1.4,-0.8 2.2,-2 2.4,-3.7 0,-0.2 0,-0.4 0,-0.7 -0.2,0.1 -0.4,0.1 -0.5,0.2 -1.4,0.5 -2.7,1 -4.2,1.2 -0.8,0.1 -1.7,0.1 -2.5,-0.1 -1.1,-0.3 -1.7,-1.1 -1.8,-2.3 -0.1,-0.5 0,-1 0,-1.5 0,-0.1 0,-0.1 0,-0.2 -0.1,0 -0.2,0.1 -0.2,0.1 -2.2,0.8 -4.4,1.5 -6.7,1.8 -1.2,0.2 -2.4,0.3 -3.7,0.1 -0.3,0 -0.5,-0.1 -0.8,-0.2 -0.9,-0.4 -1.3,-1 -1,-2 0.1,-0.4 0.3,-0.8 0.5,-1.2 0,-0.1 0.1,-0.2 0.2,-0.3 -0.2,0.1 -0.3,0.1 -0.5,0.1 -2.2,0.7 -4.5,1.3 -6.8,1.7 -5,0.8 -9.8,0.2 -14.5,-2 -3.1,-1.4 -6,-3.3 -8.8,-5.2 -0.2,-0.1 -0.3,-0.2 -0.5,-0.3 0,0 0,0 0,-0.1 0.4,0.1 0.8,0.2 1.1,0.2 1.7,0.3 3.4,0.5 5.2,0.6 5.8,0.3 11.2,-1.3 16.2,-4.2 3.6,-2.1 7.2,-4.2 10.8,-6.2 0.7,-0.4 1.5,-0.7 2.3,-1 2.7,-1.1 5.5,-2 8.3,-2.6 1.6,-0.4 3.3,-0.7 4.9,-0.8 1.7,-0.2 3.4,-0.2 5,0 2.1,0.3 4.2,0.5 6.2,1.3 1.3,0.5 2.5,1.1 3.6,2.1 1.1,1 1.7,2.3 1.9,3.7 0.2,1.3 0.1,2.5 -0.3,3.7 0,0.1 0,0.2 0,0.3 0.7,-1.4 1.4,-2.7 2.1,-4.1 0.1,0.2 0.2,0.5 0.3,0.7 0,0 0,0 0,0 0,-0.3 -0.1,-0.5 -0.1,-0.8 0,-0.1 0,-0.2 0,-0.3 1.1,-2.4 3,-3.9 5.4,-4.9 1.1,-0.4 2.3,-0.6 3.5,-0.7 2.3,-0.2 4.6,0.1 6.8,0.9 1.6,0.6 3,1.4 4.1,2.7 1,1.2 1.6,2.5 1.5,4.1 0,0.7 -0.2,1.4 -0.5,2.1 -0.1,0.2 -0.1,0.3 0.1,0.4 1.2,0.8 2.3,1.6 3.3,2.5 0.3,0.3 0.6,0.7 0.9,1 0.1,0.1 0.1,0.2 -0.1,0.3 -0.8,0.4 -1.6,0.6 -2.5,0.8 -1.9,0.3 -3.9,0.4 -5.9,0.4 -0.5,0 -1.1,-0.1 -1.6,-0.1 -0.1,0 -0.1,0 -0.2,0 0,0.6 0,1.1 -0.1,1.7 -0.2,3.4 -0.7,6.7 -2,9.8 -1.6,3.7 -4.1,6.7 -7.4,9 -2.7,1.9 -5.7,3.1 -8.8,3.8 -2.6,0.6 -5.2,0.9 -7.8,0.8 -4.8,-0.1 -9.3,-1.2 -13.7,-3.3 -2.7,-1.3 -5.1,-3.1 -7.3,-5.2 -0.5,-0.5 -1,-1 -1.4,-1.5 -0.1,-0.1 -0.2,-0.2 -0.4,-0.1 -1.3,0.4 -2.2,1.2 -3,2.2 -1,1.3 -1.6,2.8 -1.9,4.4 -0.3,1.3 -0.4,2.7 -0.5,4 -0.1,2.9 0.2,5.7 0.8,8.5 0.2,1.2 0.6,2.5 0.8,3.7 0,0.1 0,0.2 0,0.3 -0.1,0 -0.2,0 -0.3,0 0,0 -0.1,0 -0.1,0 -0.7,-0.1 -1.3,-0.3 -1.9,-0.7 -1.1,-0.7 -1.9,-1.6 -2.7,-2.7 -1.1,-1.6 -1.9,-3.3 -2.6,-5 0,-0.1 -0.1,-0.2 -0.1,-0.3 -1,1.9 -1.1,3.8 -0.1,5.7 -0.1,0 -0.1,-0.1 -0.1,-0.1 -0.7,-0.9 -1.4,-1.9 -1.9,-2.9 -1.3,-2.8 -1.8,-5.8 -1,-8.9 0.8,-3.2 2.6,-5.6 5.6,-7.1 0.3,-0.2 0.6,-0.3 0.9,-0.5 0,0 -0.1,0 -0.1,0 -3.1,0.7 -6.1,1.9 -8.9,3.3 -4.3,2.3 -8.2,5.2 -11.7,8.6 -2.9,2.8 -5.4,5.8 -7.7,9.1 -0.1,0.1 -0.1,0.2 -0.2,0.3 0.6,-0.2 0.6,-0.5 0.6,-0.7 z"
   style="fill:#ffffff;fill-opacity:1" />
	</g>
</svg>
