<svg width="32" height="33" viewBox="0 0 32 33" fill="none" xmlns="http://www.w3.org/2000/svg">
<path d="M25.92 17.4544C25.6267 17.4544 25.32 17.3611 25.0267 17.2944C24.4327 17.1635 23.8489 16.9897 23.28 16.7744C22.6615 16.5494 21.9815 16.5611 21.3711 16.8072C20.7606 17.0534 20.2628 17.5166 19.9733 18.1078L19.68 18.7078C18.3813 17.9853 17.188 17.0881 16.1333 16.0411C15.0864 14.9864 14.1891 13.7931 13.4667 12.4944L14.0267 12.1211C14.6178 11.8316 15.0811 11.3338 15.3272 10.7233C15.5734 10.1129 15.585 9.43297 15.36 8.81442C15.1483 8.24432 14.9746 7.66082 14.84 7.06776C14.7733 6.77442 14.72 6.46776 14.68 6.16109C14.5181 5.22192 14.0262 4.37141 13.2928 3.76274C12.5595 3.15407 11.6329 2.82724 10.68 2.84109H6.68001C6.10539 2.8357 5.53635 2.95418 5.01163 3.18846C4.4869 3.42275 4.01883 3.76735 3.63925 4.1988C3.25968 4.63025 2.97753 5.13842 2.812 5.68871C2.64647 6.239 2.60145 6.8185 2.68001 7.38776C3.39033 12.9736 5.94138 18.1636 9.93022 22.1379C13.919 26.1123 19.1183 28.6444 24.7067 29.3344H25.2133C26.1966 29.3359 27.1459 28.9751 27.88 28.3211C28.3018 27.9438 28.6388 27.4813 28.8686 26.9642C29.0985 26.447 29.216 25.887 29.2133 25.3211V21.3211C29.197 20.3949 28.8598 19.5032 28.2591 18.798C27.6585 18.0928 26.8318 17.6179 25.92 17.4544V17.4544ZM26.5867 25.4544C26.5864 25.6437 26.5459 25.8308 26.4677 26.0033C26.3896 26.1757 26.2756 26.3295 26.1333 26.4544C25.9848 26.5838 25.8106 26.6803 25.6222 26.7378C25.4338 26.7952 25.2354 26.8122 25.04 26.7878C20.0465 26.1475 15.4083 23.8631 11.857 20.2948C8.30561 16.7266 6.04323 12.0775 5.42668 7.08109C5.40546 6.88578 5.42406 6.6882 5.48135 6.50028C5.53864 6.31236 5.63344 6.13801 5.76001 5.98776C5.88496 5.84553 6.03876 5.73155 6.21118 5.65338C6.38361 5.57522 6.5707 5.53466 6.76001 5.53442H10.76C11.0701 5.52753 11.3728 5.62893 11.6162 5.82119C11.8596 6.01344 12.0283 6.28452 12.0933 6.58776C12.1467 6.9522 12.2133 7.3122 12.2933 7.66776C12.4474 8.37062 12.6524 9.06133 12.9067 9.73442L11.04 10.6011C10.8804 10.6743 10.7368 10.7784 10.6176 10.9072C10.4983 11.0361 10.4056 11.1872 10.3449 11.352C10.2842 11.5168 10.2566 11.6919 10.2638 11.8674C10.271 12.0428 10.3127 12.2152 10.3867 12.3744C12.3056 16.4848 15.6097 19.7888 19.72 21.7078C20.0446 21.8411 20.4087 21.8411 20.7333 21.7078C20.8996 21.6483 21.0524 21.5564 21.1829 21.4373C21.3134 21.3183 21.4189 21.1746 21.4933 21.0144L22.32 19.1478C23.0093 19.3943 23.7128 19.5991 24.4267 19.7611C24.7822 19.8411 25.1422 19.9078 25.5067 19.9611C25.8099 20.0261 26.081 20.1949 26.2733 20.4382C26.4655 20.6816 26.5669 20.9844 26.56 21.2944L26.5867 25.4544Z" fill="#FF6A3E"/>
</svg>
