<svg width="32" height="33" viewBox="0 0 32 33" fill="none" xmlns="http://www.w3.org/2000/svg">
<path d="M24 6.09442C21.8783 3.97269 19.0006 2.78072 16 2.78072C12.9994 2.78072 10.1217 3.97269 7.99999 6.09442C5.87826 8.21616 4.68628 11.0938 4.68628 14.0944C4.68628 17.095 5.87826 19.9727 7.99999 22.0944L15.0267 29.1344C15.1506 29.2594 15.2981 29.3586 15.4606 29.4263C15.623 29.494 15.7973 29.5288 15.9733 29.5288C16.1493 29.5288 16.3236 29.494 16.4861 29.4263C16.6486 29.3586 16.796 29.2594 16.92 29.1344L24 22.0278C26.1129 19.9149 27.2998 17.0492 27.2998 14.0611C27.2998 11.073 26.1129 8.20733 24 6.09442V6.09442ZM22.0933 20.1211L16 26.2411L9.90665 20.1211C8.70285 18.9162 7.88329 17.3814 7.55158 15.7108C7.21987 14.0402 7.39091 12.3088 8.04306 10.7353C8.69521 9.16191 9.79921 7.81716 11.2155 6.87106C12.6318 5.92496 14.2968 5.42 16 5.42C17.7032 5.42 19.3682 5.92496 20.7845 6.87106C22.2008 7.81716 23.3048 9.16191 23.9569 10.7353C24.6091 12.3088 24.7801 14.0402 24.4484 15.7108C24.1167 17.3814 23.2971 18.9162 22.0933 20.1211V20.1211ZM12 10.0011C10.9236 11.0808 10.3192 12.5432 10.3192 14.0678C10.3192 15.5923 10.9236 17.0547 12 18.1344C12.7997 18.9355 13.8181 19.4825 14.9275 19.707C16.0369 19.9314 17.1879 19.8232 18.2361 19.396C19.2842 18.9687 20.1829 18.2415 20.8193 17.3054C21.4557 16.3694 21.8015 15.2663 21.8133 14.1344C21.8193 13.3787 21.6738 12.6294 21.3852 11.9309C21.0966 11.2324 20.671 10.5989 20.1333 10.0678C19.6049 9.5272 18.9748 9.09648 18.2792 8.80038C17.5837 8.50428 16.8364 8.34866 16.0805 8.34246C15.3246 8.33627 14.5749 8.47962 13.8746 8.76428C13.1743 9.04893 12.5372 9.46926 12 10.0011V10.0011ZM18.2533 16.2411C17.748 16.7541 17.0803 17.0756 16.3642 17.1508C15.648 17.2259 14.9281 17.0499 14.3273 16.653C13.7266 16.256 13.2824 15.6627 13.0707 14.9745C12.8589 14.2863 12.8929 13.5459 13.1666 12.88C13.4403 12.214 13.9369 11.6638 14.5714 11.3234C15.2059 10.983 15.939 10.8736 16.6452 11.0139C17.3515 11.1542 17.9871 11.5354 18.4433 12.0925C18.8996 12.6495 19.1482 13.3477 19.1467 14.0678C19.1273 14.8908 18.782 15.6725 18.1867 16.2411H18.2533Z" fill="#FF6A3E"/>
</svg>
